<svg width="211" height="173" viewBox="0 0 211 173" fill="none" xmlns="http://www.w3.org/2000/svg">
<rect width="211" height="173" rx="28" fill="#F9DB71" fill-opacity="0.22"/>
<path d="M18 119.16C18 115.846 20.6863 113.16 24 113.16H188C191.314 113.16 194 115.846 194 119.16V148.52C194 151.834 191.314 154.52 188 154.52H24C20.6863 154.52 18 151.834 18 148.52V119.16Z" fill="#725151"/>
<rect x="73" y="124.419" width="72.2316" height="21.4743" rx="3" fill="#B3A576"/>
<path d="M139.863 126.157C139.863 125.671 140.256 125.278 140.741 125.278H142.194C143.332 125.278 144.255 126.201 144.255 127.34C144.255 127.624 144.025 127.855 143.74 127.855H140.863C140.311 127.855 139.863 127.407 139.863 126.855V126.157Z" fill="#EBEBEB"/>
<rect width="4.39246" height="2.57691" rx="1" transform="matrix(-1 0 0 1 78.3684 128.714)" fill="#EBEBEB"/>
<path d="M78.3684 143.458C78.3684 142.905 77.9207 142.458 77.3684 142.458H74.4913C74.2067 142.458 73.9759 142.688 73.9759 142.973C73.9759 144.111 74.8989 145.034 76.0375 145.034H77.4899C77.9751 145.034 78.3684 144.641 78.3684 144.156V143.458Z" fill="#EBEBEB"/>
<rect x="139.863" y="132.15" width="4.39246" height="2.57691" rx="1" fill="#EBEBEB"/>
<rect x="118.389" y="125.278" width="4.39246" height="2.57691" rx="1" fill="#EBEBEB"/>
<rect width="4.39246" height="2.57691" rx="1" transform="matrix(-1 0 0 1 99.8428 128.714)" fill="#EBEBEB"/>
<rect x="118.389" y="132.15" width="4.39246" height="2.57691" rx="1" fill="#EBEBEB"/>
<rect x="120.341" y="135.586" width="4.39246" height="2.57691" rx="1" fill="#EBEBEB"/>
<rect x="123.269" y="139.022" width="4.39246" height="2.57691" rx="1" fill="#EBEBEB"/>
<rect x="96.9143" y="125.278" width="4.39246" height="2.57691" rx="1" fill="#EBEBEB"/>
<rect width="4.39246" height="2.57691" rx="1" transform="matrix(-1 0 0 1 121.317 128.714)" fill="#EBEBEB"/>
<rect width="25.3787" height="2.57691" rx="1" transform="matrix(-1 0 0 1 121.805 142.458)" fill="#EBEBEB"/>
<rect x="96.9143" y="132.15" width="4.39246" height="2.57691" rx="1" fill="#EBEBEB"/>
<rect x="98.8667" y="135.586" width="4.39246" height="2.57691" rx="1" fill="#EBEBEB"/>
<rect x="101.795" y="139.022" width="4.39246" height="2.57691" rx="1" fill="#EBEBEB"/>
<rect x="129.126" y="125.278" width="4.39246" height="2.57691" rx="1" fill="#EBEBEB"/>
<rect width="4.39246" height="2.57691" rx="1" transform="matrix(-1 0 0 1 89.1057 128.714)" fill="#EBEBEB"/>
<rect width="4.39246" height="2.57691" rx="1" transform="matrix(-1 0 0 1 89.1057 142.458)" fill="#EBEBEB"/>
<rect x="129.126" y="132.15" width="4.39246" height="2.57691" rx="1" fill="#EBEBEB"/>
<rect x="131.078" y="135.586" width="4.39246" height="2.57691" rx="1" fill="#EBEBEB"/>
<rect x="107.652" y="125.278" width="4.39246" height="2.57691" rx="1" fill="#EBEBEB"/>
<rect width="4.39246" height="2.57691" rx="1" transform="matrix(-1 0 0 1 110.58 128.714)" fill="#EBEBEB"/>
<rect x="107.652" y="132.15" width="4.39246" height="2.57691" rx="1" fill="#EBEBEB"/>
<rect x="109.604" y="135.586" width="4.39246" height="2.57691" rx="1" fill="#EBEBEB"/>
<rect x="112.532" y="139.022" width="4.39246" height="2.57691" rx="1" fill="#EBEBEB"/>
<rect x="86.1772" y="125.278" width="4.39246" height="2.57691" rx="1" fill="#EBEBEB"/>
<rect width="4.39246" height="2.57691" rx="1" transform="matrix(-1 0 0 1 132.054 128.714)" fill="#EBEBEB"/>
<rect width="3.41636" height="2.57691" rx="1" transform="matrix(-1 0 0 1 135.47 142.458)" fill="#EBEBEB"/>
<rect x="86.1772" y="132.15" width="4.39246" height="2.57691" rx="1" fill="#EBEBEB"/>
<rect x="88.1294" y="135.586" width="4.39246" height="2.57691" rx="1" fill="#EBEBEB"/>
<rect x="91.0576" y="139.022" width="4.39246" height="2.57691" rx="1" fill="#EBEBEB"/>
<rect x="134.494" y="125.278" width="4.39246" height="2.57691" rx="1" fill="#EBEBEB"/>
<rect width="4.39246" height="2.57691" rx="1" transform="matrix(-1 0 0 1 83.7371 128.714)" fill="#EBEBEB"/>
<rect width="4.39246" height="2.57691" rx="1" transform="matrix(-1 0 0 1 83.7371 142.458)" fill="#EBEBEB"/>
<rect x="134.494" y="132.15" width="4.39246" height="2.57691" rx="1" fill="#EBEBEB"/>
<rect x="136.447" y="135.586" width="7.80882" height="2.57691" rx="1" fill="#EBEBEB"/>
<rect x="134.006" y="139.022" width="10.2491" height="2.57691" rx="1" fill="#EBEBEB"/>
<rect x="113.02" y="125.278" width="4.39246" height="2.57691" rx="1" fill="#EBEBEB"/>
<rect width="4.39246" height="2.57691" rx="1" transform="matrix(-1 0 0 1 105.211 128.714)" fill="#EBEBEB"/>
<rect x="113.02" y="132.15" width="4.39246" height="2.57691" rx="1" fill="#EBEBEB"/>
<rect x="114.972" y="135.586" width="4.39246" height="2.57691" rx="1" fill="#EBEBEB"/>
<rect x="117.901" y="139.022" width="4.39246" height="2.57691" rx="1" fill="#EBEBEB"/>
<rect x="91.5459" y="125.278" width="4.39246" height="2.57691" rx="1" fill="#EBEBEB"/>
<rect width="4.39246" height="2.57691" rx="1" transform="matrix(-1 0 0 1 126.686 128.714)" fill="#EBEBEB"/>
<rect width="4.39246" height="2.57691" rx="1" transform="matrix(-1 0 0 1 127.174 142.458)" fill="#EBEBEB"/>
<rect width="2.92831" height="2.57691" rx="1" transform="matrix(-1 0 0 1 131.078 142.458)" fill="#EBEBEB"/>
<rect x="91.5459" y="132.15" width="4.39246" height="2.57691" rx="1" fill="#EBEBEB"/>
<rect x="93.498" y="135.586" width="4.39246" height="2.57691" rx="1" fill="#EBEBEB"/>
<rect x="96.4265" y="139.022" width="4.39246" height="2.57691" rx="1" fill="#EBEBEB"/>
<rect x="123.757" y="125.278" width="4.39246" height="2.57691" rx="1" fill="#EBEBEB"/>
<rect width="4.39246" height="2.57691" rx="1" transform="matrix(-1 0 0 1 94.4741 128.714)" fill="#EBEBEB"/>
<rect width="5.36857" height="2.57691" rx="1" transform="matrix(-1 0 0 1 95.4502 142.458)" fill="#EBEBEB"/>
<rect x="123.757" y="132.15" width="4.39246" height="2.57691" rx="1" fill="#EBEBEB"/>
<rect x="125.709" y="135.586" width="4.39246" height="2.57691" rx="1" fill="#EBEBEB"/>
<rect x="128.638" y="139.022" width="4.39246" height="2.57691" rx="1" fill="#EBEBEB"/>
<rect x="102.283" y="125.278" width="4.39246" height="2.57691" rx="1" fill="#EBEBEB"/>
<rect width="4.39246" height="2.57691" rx="1" transform="matrix(-1 0 0 1 115.948 128.714)" fill="#EBEBEB"/>
<rect x="102.283" y="132.15" width="4.39246" height="2.57691" rx="1" fill="#EBEBEB"/>
<rect x="104.235" y="135.586" width="4.39246" height="2.57691" rx="1" fill="#EBEBEB"/>
<rect x="107.164" y="139.022" width="4.39246" height="2.57691" rx="1" fill="#EBEBEB"/>
<rect x="80.8088" y="125.278" width="4.39246" height="2.57691" rx="1" fill="#EBEBEB"/>
<rect width="4.39246" height="2.57691" rx="1" transform="matrix(-1 0 0 1 137.423 128.714)" fill="#EBEBEB"/>
<path d="M140.351 143.458C140.351 142.905 139.903 142.458 139.351 142.458H136.959C136.406 142.458 135.959 142.905 135.959 143.458V143.531H140.351V143.458Z" fill="#EBEBEB"/>
<path d="M140.351 144.034C140.351 144.587 139.903 145.034 139.351 145.034H136.959C136.406 145.034 135.959 144.587 135.959 144.034V143.961H140.351V144.034Z" fill="#EBEBEB"/>
<rect x="80.8088" y="132.15" width="4.39246" height="2.57691" rx="1" fill="#EBEBEB"/>
<rect x="82.761" y="135.586" width="4.39246" height="2.57691" rx="1" fill="#EBEBEB"/>
<rect x="85.6892" y="139.022" width="4.39246" height="2.57691" rx="1" fill="#EBEBEB"/>
<path d="M73.9758 127.34C73.9758 126.201 74.8988 125.278 76.0374 125.278H78.8324C79.3847 125.278 79.8324 125.726 79.8324 126.278V126.855C79.8324 127.407 79.3847 127.855 78.8324 127.855H74.4912C74.2066 127.855 73.9758 127.624 73.9758 127.34Z" fill="#EBEBEB"/>
<rect width="5.85662" height="2.57691" rx="1" transform="matrix(-1 0 0 1 144.255 128.714)" fill="#EBEBEB"/>
<path d="M144.255 142.973C144.255 142.688 144.025 142.458 143.74 142.458H141.839C141.287 142.458 140.839 142.905 140.839 143.458V144.351C140.839 144.729 141.145 145.034 141.522 145.034H142.194C143.332 145.034 144.255 144.111 144.255 142.973Z" fill="#EBEBEB"/>
<rect x="73.9758" y="132.15" width="5.85662" height="2.57691" rx="1" fill="#EBEBEB"/>
<rect x="73.9758" y="135.586" width="7.80882" height="2.57691" rx="1" fill="#EBEBEB"/>
<rect x="73.9758" y="139.022" width="10.7371" height="2.57691" rx="1" fill="#EBEBEB"/>
<rect x="160.056" y="125.883" width="9.7519" height="15.262" rx="4.87595" transform="rotate(3.96781 160.056 125.883)" fill="#EBEBEB"/>
<path d="M45 24C45 21.2386 47.2386 19 50 19H163.965C166.726 19 168.965 21.2386 168.965 24V91.2407H45V24Z" fill="white"/>
<rect x="48.3115" y="22.0227" width="117.631" height="65.3283" rx="1" fill="black" stroke="black" stroke-width="2"/>
<circle cx="106.982" cy="20.0114" r="0.433444" fill="black"/>
<path d="M45 91.2407H168.965V99.822C168.965 102.583 166.726 104.822 163.965 104.822H50C47.2386 104.822 45 102.583 45 99.822V91.2407Z" fill="#FEDC62"/>
<rect x="96.2659" y="104.733" width="21.7228" height="14.7715" fill="#DCB838"/>
<rect x="96.1462" y="119.504" width="21.9612" height="1.15585" fill="#A38F48"/>
<rect x="49.3923" y="22.9044" width="115.668" height="63.9347" fill="#333027"/>
<rect x="55.2488" y="28.2729" width="102.491" height="53.6857" rx="3" fill="#414854"/>
<path d="M55.2488 30.7132C55.2488 29.3655 56.3413 28.2729 57.689 28.2729H155.299C156.647 28.2729 157.74 29.3655 157.74 30.7132H55.2488Z" fill="#282C34"/>
<circle cx="56.9572" cy="29.4931" r="0.732077" fill="#FF6059"/>
<circle cx="58.9093" cy="29.4931" r="0.732077" fill="#FFBD2E"/>
<circle cx="60.8615" cy="29.4931" r="0.732077" fill="#29CB42"/>
<line x1="99.6736" y1="29.2371" x2="112.827" y2="29.2371" stroke="#B1B1B1" stroke-linecap="round"/>
<path d="M55.2488 30.7133H59.1532V81.9587H58.2488C56.5919 81.9587 55.2488 80.6155 55.2488 78.9587V30.7133Z" fill="#282C34"/>
<rect x="56.2251" y="31.6893" width="1.95221" height="2.44026" rx="0.976103" fill="#686868"/>
<rect x="56.2251" y="35.5938" width="1.95221" height="2.44026" rx="0.976103" fill="#686868"/>
<rect x="56.2251" y="39.4981" width="1.95221" height="2.44026" rx="0.976103" fill="#686868"/>
<rect x="56.2251" y="43.4025" width="1.95221" height="2.44026" rx="0.976103" fill="#686868"/>
<rect x="56.2251" y="47.3069" width="1.95221" height="2.44026" rx="0.976103" fill="#686868"/>
<rect x="59.1533" y="30.7133" width="17.0818" height="51.2454" fill="#5B6371"/>
<rect x="59.1533" y="30.7133" width="17.0818" height="2.44026" fill="#4E535B"/>
<rect x="76.2351" y="30.7133" width="81.5046" height="2.44026" fill="#4E535B"/>
<rect x="76.2351" y="30.7133" width="9.76103" height="2.44026" fill="#414854"/>
<line x1="65.022" y1="31.6774" x2="70.8547" y2="31.6774" stroke="#B1B1B1" stroke-linecap="round"/>
<path d="M77.9431 31.9333H84.2878" stroke="#B1B1B1" stroke-linecap="round"/>
<line x1="60.6294" y1="34.6057" x2="69.3904" y2="34.6057" stroke="#B1B1B1" stroke-linecap="round"/>
<line x1="60.6294" y1="36.5579" x2="67.4382" y2="36.5579" stroke="#B1B1B1" stroke-linecap="round"/>
<line x1="60.6294" y1="38.5101" x2="68.9024" y2="38.5101" stroke="#B1B1B1" stroke-linecap="round"/>
<line x1="60.6294" y1="40.4623" x2="68.4143" y2="40.4623" stroke="#B1B1B1" stroke-linecap="round"/>
<line x1="60.6294" y1="42.4146" x2="70.8546" y2="42.4146" stroke="#B1B1B1" stroke-linecap="round"/>
<line x1="60.6294" y1="44.3667" x2="69.8785" y2="44.3667" stroke="#B1B1B1" stroke-linecap="round"/>
<line x1="60.6294" y1="46.3189" x2="69.3904" y2="46.3189" stroke="#B1B1B1" stroke-linecap="round"/>
<line x1="81.6155" y1="36.5579" x2="102.578" y2="36.5579" stroke="#B1B1B1" stroke-linecap="round"/>
<line x1="81.6155" y1="38.5101" x2="98.1853" y2="38.5101" stroke="#B1B1B1" stroke-linecap="round"/>
<line x1="81.6155" y1="40.4623" x2="101.602" y2="40.4623" stroke="#B1B1B1" stroke-linecap="round"/>
<line x1="81.6155" y1="42.4146" x2="100.626" y2="42.4146" stroke="#B1B1B1" stroke-linecap="round"/>
<line x1="81.6155" y1="44.3667" x2="105.994" y2="44.3667" stroke="#B1B1B1" stroke-linecap="round"/>
<line x1="81.6155" y1="46.3189" x2="103.554" y2="46.3189" stroke="#B1B1B1" stroke-linecap="round"/>
<line x1="81.6155" y1="48.2711" x2="104.53" y2="48.2711" stroke="#B1B1B1" stroke-linecap="round"/>
<line x1="81.6155" y1="50.2233" x2="102.578" y2="50.2233" stroke="#B1B1B1" stroke-linecap="round"/>
<line x1="81.6155" y1="63.8888" x2="102.578" y2="63.8888" stroke="#B1B1B1" stroke-linecap="round"/>
<line x1="81.6155" y1="52.1755" x2="98.1853" y2="52.1755" stroke="#B1B1B1" stroke-linecap="round"/>
<line x1="81.6155" y1="65.841" x2="98.1853" y2="65.841" stroke="#B1B1B1" stroke-linecap="round"/>
<line x1="81.6155" y1="54.1277" x2="101.602" y2="54.1277" stroke="#B1B1B1" stroke-linecap="round"/>
<line x1="81.6155" y1="67.7932" x2="101.602" y2="67.7932" stroke="#B1B1B1" stroke-linecap="round"/>
<line x1="81.6155" y1="56.08" x2="100.626" y2="56.08" stroke="#B1B1B1" stroke-linecap="round"/>
<line x1="81.6155" y1="69.7454" x2="100.626" y2="69.7454" stroke="#B1B1B1" stroke-linecap="round"/>
<line x1="81.6155" y1="71.6976" x2="105.994" y2="71.6976" stroke="#B1B1B1" stroke-linecap="round"/>
<line x1="81.6155" y1="59.9844" x2="103.554" y2="59.9844" stroke="#B1B1B1" stroke-linecap="round"/>
<line x1="81.6155" y1="73.6498" x2="103.554" y2="73.6498" stroke="#B1B1B1" stroke-linecap="round"/>
<line x1="81.6155" y1="61.9366" x2="104.53" y2="61.9366" stroke="#B1B1B1" stroke-linecap="round"/>
<line x1="81.6155" y1="75.6021" x2="104.53" y2="75.6021" stroke="#B1B1B1" stroke-linecap="round"/>
<line x1="81.6155" y1="58.0322" x2="105.994" y2="58.0322" stroke="#B1B1B1" stroke-linecap="round"/>
</svg>
