<svg width="173" height="221" viewBox="0 0 173 221" fill="none" xmlns="http://www.w3.org/2000/svg">
<path d="M29.398 161.597C18.3214 136.423 23.1044 125.094 26.8806 122.577L48.2787 65.9353L126.318 38.2438L155.269 122.577C151.912 133.905 143.94 160.086 138.906 174.184C132.612 191.806 104.92 218.239 89.816 218.239C74.7115 218.239 43.2437 193.065 29.398 161.597Z" fill="#ECC07E"/>
<path d="M45.2719 157.821C36.4605 147.751 27.3007 128.451 25.6225 121.318C15.5528 143.975 31.4443 191.729 35.6916 198.099C40.7269 205.652 44.0131 223.274 91.8439 220.756C130.109 218.742 130.864 206.91 139.675 196.841C147.227 186.771 152.262 170.408 152.262 154.045C152.262 141.308 150.164 133.066 148.486 130.129L130.864 165.373C129.823 166.727 128.43 168.478 126.832 170.408C121.992 176.255 115.267 183.743 110.724 186.771C103.172 191.806 74.2219 189.288 65.411 182.995C63.7231 181.789 61.9535 180.03 60.1919 177.96C54.5969 171.385 49.6776 162.856 45.2719 157.821Z" fill="black"/>
<path d="M106.379 69.4154H73.4528C79.1067 65.4243 90.6141 57.6419 91.4123 58.4401C92.2105 59.2383 102.055 66.0895 106.379 69.4154Z" fill="#2F2E41"/>
<path d="M56.5995 188.03L60.3756 169.149C66.6691 164.114 84.291 159.08 94.3606 159.08C104.43 159.08 118.276 166.632 120.793 171.667C122.807 175.694 121.633 184.254 120.793 188.03C120.793 184.673 119.786 177.205 115.759 174.184C110.724 170.408 104.43 166.632 94.3606 166.632C84.291 166.632 69.1865 169.149 67.9278 172.925C66.9209 175.946 59.956 184.254 56.5995 188.03Z" fill="black"/>
<path d="M120.89 88.4229C115.856 78.3533 97.8141 62.8293 90.6814 56.9553C92.7919 53.9403 95.2675 50.503 97.9258 46.8856C100.328 43.6165 102.88 40.2004 105.447 36.816C108.111 33.3026 110.792 29.8234 113.338 26.5782C117.169 21.6954 120.697 17.3426 123.408 14.2006C125.93 11.2782 127.745 9.40342 128.443 9.12447C134.736 6.60703 147.323 20.4528 149.841 24.2289C151.168 26.2195 160.319 35.7725 166.597 54.6071C171.632 69.7115 174.012 69.8302 171.632 93.6269C170.373 106.214 170.373 108.731 166.597 118.801C164.08 127.612 164.08 130.129 161.562 137.682C159.464 143.975 153.143 153.323 151.493 154.045C146.458 107.473 127.184 101.01 120.89 88.4229Z" fill="#605D85"/>
<path d="M171.632 93.6269C170.373 106.214 170.373 108.731 166.597 118.801M171.632 93.6269C174.012 69.8302 171.632 69.7115 166.597 54.6071M171.632 93.6269C160.555 56.3693 128.154 33.4037 113.338 26.5782M97.9258 46.8856C95.2675 50.503 92.7919 53.9403 90.6814 56.9553C97.8141 62.8293 115.856 78.3533 120.89 88.4229C127.184 101.01 146.458 107.473 151.493 154.045C153.143 153.323 159.464 143.975 161.562 137.682M97.9258 46.8856C100.328 43.6165 102.88 40.2004 105.447 36.816M97.9258 46.8856C115.781 57.0117 153.507 89.3473 161.562 137.682M161.562 137.682C164.08 130.129 164.08 127.612 166.597 118.801M105.447 36.816C108.111 33.3026 110.792 29.8234 113.338 26.5782M105.447 36.816C123.313 46.1029 160.555 75.5016 166.597 118.801M113.338 26.5782C117.169 21.6954 120.697 17.3426 123.408 14.2006M123.408 14.2006C125.93 11.2782 127.745 9.40342 128.443 9.12447C134.736 6.60703 147.323 20.4528 149.841 24.2289C151.168 26.2195 160.319 35.7725 166.597 54.6071M123.408 14.2006C131.091 17.5998 150.486 30.4399 166.597 54.6071" stroke="black" stroke-width="0.5" stroke-linecap="round" stroke-linejoin="round"/>
<g filter="url(#filter0_d)">
<path d="M13.9002 127.443C18.935 142.547 19.7479 150.688 24.3632 154.045C26.8806 142.716 50.4026 106.045 61.731 92.1988C70.7937 81.1222 86.4855 64.9269 93.1986 58.2138C99.0726 50.242 111.324 33.5432 113.338 30.5223C115.855 26.7462 128.442 14.1591 132.218 9.12428C127.184 7.11035 113.338 4.92859 107.044 4.08944C84.3877 1.57203 80.6116 2.83074 52.92 14.1591C25.2285 25.4874 13.9002 44.368 10.1241 60.7312C6.34795 77.0944 7.60665 108.562 13.9002 127.443Z" fill="#605D85"/>
<path d="M13.9002 127.443C18.935 142.547 19.7479 150.688 24.3632 154.045C26.8806 142.716 50.4026 106.045 61.731 92.1988C70.7937 81.1222 86.4855 64.9269 93.1986 58.2138C99.0726 50.242 111.324 33.5432 113.338 30.5223C115.855 26.7462 128.442 14.1591 132.218 9.12428C127.184 7.11035 113.338 4.92859 107.044 4.08944C84.3877 1.57203 80.6116 2.83074 52.92 14.1591C25.2285 25.4874 13.9002 44.368 10.1241 60.7312C6.34795 77.0944 7.60665 108.562 13.9002 127.443Z" stroke="black" stroke-width="0.5" stroke-linecap="round" stroke-linejoin="round"/>
</g>
<defs>
<filter id="filter0_d" x="0.75" y="0.75" width="138.718" height="165.545" filterUnits="userSpaceOnUse" color-interpolation-filters="sRGB">
<feFlood flood-opacity="0" result="BackgroundImageFix"/>
<feColorMatrix in="SourceAlpha" type="matrix" values="0 0 0 0 0 0 0 0 0 0 0 0 0 0 0 0 0 0 127 0" result="hardAlpha"/>
<feOffset dy="5"/>
<feGaussianBlur stdDeviation="3.5"/>
<feColorMatrix type="matrix" values="0 0 0 0 0 0 0 0 0 0 0 0 0 0 0 0 0 0 0.06 0"/>
<feBlend mode="normal" in2="BackgroundImageFix" result="effect1_dropShadow"/>
<feBlend mode="normal" in="SourceGraphic" in2="effect1_dropShadow" result="shape"/>
</filter>
</defs>
</svg>