<svg width="197" height="620" viewBox="0 0 197 620" fill="none" xmlns="http://www.w3.org/2000/svg">
<path d="M147.473 604.671H132.071L124.744 545.265L147.475 545.267L147.473 604.671Z" fill="#ECC07E"/>
<path d="M151.401 599.643L121.07 599.641H121.069C115.943 599.642 111.026 601.678 107.401 605.303C103.777 608.928 101.74 613.844 101.74 618.97V619.598L151.4 619.6L151.401 599.643Z" fill="#2F2E41"/>
<path d="M45.7333 604.671H30.3319L23.0043 545.265L45.7356 545.267L45.7333 604.671Z" fill="#ECC07E"/>
<path d="M49.6611 599.643L19.3303 599.641H19.3291C14.2028 599.642 9.28655 601.678 5.6617 605.303C2.03684 608.928 0.000267029 613.844 -8.7738e-05 618.97V619.598L49.6602 619.6L49.6611 599.643Z" fill="#2F2E41"/>
<path d="M160.368 591.789H120.472L94.9718 368.508L48.0872 591.789H21.1674V325.534L149.158 287.23L160.368 591.789Z" fill="#2F2E41"/>
<path d="M146.355 292.835C109.022 322.031 67.8144 336.748 21.1676 331.139C40.8686 261.966 46.7121 193.317 27.7072 125.608L66.9449 107.858L111.051 105.055L143.107 114.483C147.617 115.811 151.565 118.584 154.343 122.376C157.121 126.168 158.576 130.768 158.484 135.468C157.352 193.212 161.191 247.252 146.355 292.835Z" fill="#F9DB71"/>
<path d="M124.472 315.643C124.48 313.9 124.871 312.18 125.615 310.603C126.36 309.027 127.442 307.633 128.784 306.52C130.126 305.407 131.695 304.601 133.382 304.161C135.069 303.72 136.832 303.654 138.547 303.968L159.427 267.089L168.042 284.747L148.087 318.713C147.369 321.559 145.631 324.042 143.203 325.692C140.776 327.343 137.827 328.046 134.917 327.667C132.006 327.289 129.335 325.856 127.41 323.64C125.485 321.424 124.44 318.579 124.472 315.644V315.643Z" fill="#ECC07E"/>
<path d="M31.1095 356.642C31.9336 355.106 32.4108 353.407 32.5075 351.667C32.6042 349.926 32.3181 348.185 31.6692 346.567C31.0204 344.948 30.0246 343.492 28.752 342.3C27.4794 341.109 25.9611 340.21 24.3038 339.669L23.532 297.296L5.37065 309.753L8.88786 348.081C8.16276 350.926 8.50622 353.937 9.85319 356.545C11.2002 359.153 13.457 361.177 16.1962 362.232C18.9353 363.287 21.9663 363.301 24.7149 362.271C27.4636 361.241 29.7388 359.238 31.1095 356.642H31.1095Z" fill="#ECC07E"/>
<path d="M157.565 310.586L142.617 296.572L150.288 220.899L141.413 113.93C160.693 119.989 181.394 136.266 184.804 156.186L197 227.439L157.565 310.586Z" fill="#F9DB71"/>
<path opacity="0.2" d="M148.887 180.26L161.033 228.84L142.618 297.776L154.493 232.577L148.887 180.26Z" fill="black"/>
<path d="M28.6415 336.744L4.35146 339.547L10.0388 159.177C10.2929 151.118 12.8625 143.302 17.4405 136.664C22.0184 130.027 28.4111 124.848 35.8542 121.746L44.5234 118.134L42.1878 202.682L28.6415 336.744Z" fill="#F9DB71"/>
<path opacity="0.2" d="M37.735 205.445L28.3601 309.541L44.2349 206.171L37.735 205.445Z" fill="black"/>
<path d="M63.118 83.4342C57.5004 70.6668 59.9262 64.9215 61.8413 63.6448L72.6936 34.9183L112.272 20.8743L126.955 63.6448C125.252 69.3901 121.209 82.6681 118.656 89.8178C115.464 98.7549 101.42 112.161 93.7597 112.161C86.0993 112.161 70.1401 99.3933 63.118 83.4342Z" fill="#ECC07E"/>
<path d="M71.1687 81.5191C66.6998 76.4122 62.0544 66.6238 61.2032 63.0064C56.0963 74.497 64.1558 98.716 66.3099 101.947C68.8636 105.777 70.5303 114.714 94.7882 113.437C114.195 112.416 114.578 106.415 119.046 101.308C122.876 96.2015 125.43 87.9027 125.43 79.604C125.43 73.1442 124.366 68.9645 123.515 67.475L114.578 85.3493C114.049 86.0357 113.343 86.9239 112.533 87.9027C110.078 90.8684 106.667 94.6656 104.364 96.2015C100.533 98.755 85.851 97.4782 81.3824 94.2864C80.5264 93.675 79.6289 92.7829 78.7355 91.7329C75.8979 88.398 73.4031 84.0725 71.1687 81.5191Z" fill="black"/>
<path d="M102.159 36.6833H85.4607C88.3282 34.6592 94.1643 30.7122 94.5691 31.117C94.9739 31.5218 99.9667 34.9965 102.159 36.6833Z" fill="#2F2E41"/>
<path d="M76.9136 96.8398L78.8287 87.2643C82.0205 84.7108 90.9576 82.1573 96.0646 82.1573C101.171 82.1573 108.194 85.9875 109.47 88.541C110.492 90.5838 109.896 94.9247 109.47 96.8398C109.47 95.1375 108.96 91.3498 106.917 89.8177C104.363 87.9026 101.171 85.9875 96.0646 85.9875C90.9576 85.9875 83.2972 87.2643 82.6589 89.1794C82.1482 90.7115 78.6159 94.9247 76.9136 96.8398Z" fill="black"/>
<path d="M109.519 46.3231C106.966 41.2162 97.8159 33.343 94.1985 30.364C95.2689 28.8349 96.5244 27.0916 97.8726 25.257C99.091 23.5991 100.385 21.8665 101.687 20.1501C103.038 18.3682 104.398 16.6037 105.689 14.9579C107.632 12.4815 109.421 10.2739 110.796 8.68048C112.075 7.19831 112.996 6.24751 113.349 6.10604C116.541 4.82929 122.925 11.8513 124.202 13.7664C124.875 14.7759 129.516 19.6209 132.7 29.173C135.253 36.8334 136.46 36.8936 135.253 48.9624C134.615 55.3461 134.615 56.6228 132.7 61.7297C131.423 66.1983 131.423 67.475 130.146 71.3052C129.083 74.497 125.876 79.2378 125.04 79.604C122.486 55.9844 112.711 52.7068 109.519 46.3231Z" fill="#F3CE49"/>
<path d="M135.253 48.9624C134.615 55.3461 134.615 56.6228 132.7 61.7297M135.253 48.9624C136.46 36.8936 135.253 36.8334 132.7 29.173M135.253 48.9624C129.636 30.0668 113.203 18.4195 105.689 14.9579M97.8726 25.257C96.5244 27.0916 95.2689 28.8349 94.1985 30.364C97.8159 33.343 106.966 41.2162 109.519 46.3231C112.711 52.7068 122.486 55.9844 125.04 79.604C125.876 79.2378 129.083 74.497 130.146 71.3052M97.8726 25.257C99.091 23.5991 100.385 21.8665 101.687 20.1501M97.8726 25.257C106.928 30.3925 126.061 46.7919 130.146 71.3052M130.146 71.3052C131.423 67.475 131.423 66.1983 132.7 61.7297M101.687 20.1501C103.038 18.3682 104.398 16.6037 105.689 14.9579M101.687 20.1501C110.748 24.86 129.636 39.7699 132.7 61.7297M105.689 14.9579C107.632 12.4815 109.421 10.2739 110.796 8.68048M110.796 8.68048C112.075 7.19831 112.996 6.24751 113.349 6.10604C116.541 4.82929 122.925 11.8513 124.202 13.7664C124.875 14.7759 129.516 19.6209 132.7 29.173M110.796 8.68048C114.693 10.4044 124.529 16.9164 132.7 29.173" stroke="black" stroke-width="0.5" stroke-linecap="round" stroke-linejoin="round"/>
<g filter="url(#filter0_d)">
<path d="M55.2582 66.1124C57.8117 73.7728 58.224 77.9016 60.5646 79.6039C61.8414 73.8586 73.7708 55.2602 79.5161 48.2382C84.1124 42.6205 92.0707 34.4069 95.4753 31.0023C98.4543 26.9593 104.668 18.4903 105.689 16.9582C106.966 15.0431 113.35 8.65947 115.265 6.106C112.711 5.08461 105.689 3.9781 102.497 3.55252C91.0067 2.27579 89.0916 2.91416 75.0476 8.65945C61.0035 14.4047 55.2582 23.9802 53.3431 32.279C51.428 40.5778 52.0664 56.5369 55.2582 66.1124Z" fill="#F3CE49"/>
<path d="M55.2582 66.1124C57.8117 73.7728 58.224 77.9016 60.5646 79.6039C61.8414 73.8586 73.7708 55.2602 79.5161 48.2382C84.1124 42.6205 92.0707 34.4069 95.4753 31.0023C98.4543 26.9593 104.668 18.4903 105.689 16.9582C106.966 15.0431 113.35 8.65947 115.265 6.106C112.711 5.08461 105.689 3.9781 102.497 3.55252C91.0067 2.27579 89.0916 2.91416 75.0476 8.65945C61.0035 14.4047 55.2582 23.9802 53.3431 32.279C51.428 40.5778 52.0664 56.5369 55.2582 66.1124Z" stroke="black" stroke-width="0.5" stroke-linecap="round" stroke-linejoin="round"/>
</g>
<defs>
<filter id="filter0_d" x="45.0159" y="0.75" width="77.4988" height="91.1039" filterUnits="userSpaceOnUse" color-interpolation-filters="sRGB">
<feFlood flood-opacity="0" result="BackgroundImageFix"/>
<feColorMatrix in="SourceAlpha" type="matrix" values="0 0 0 0 0 0 0 0 0 0 0 0 0 0 0 0 0 0 127 0" result="hardAlpha"/>
<feOffset dy="5"/>
<feGaussianBlur stdDeviation="3.5"/>
<feColorMatrix type="matrix" values="0 0 0 0 0 0 0 0 0 0 0 0 0 0 0 0 0 0 0.06 0"/>
<feBlend mode="normal" in2="BackgroundImageFix" result="effect1_dropShadow"/>
<feBlend mode="normal" in="SourceGraphic" in2="effect1_dropShadow" result="shape"/>
</filter>
</defs>
</svg>