<svg width="138" height="40" viewBox="0 0 138 40" fill="none" xmlns="http://www.w3.org/2000/svg">
<path d="M99.9158 12.0059C94.8508 12.0059 95.1671 14.211 95.1671 14.211L95.1727 16.4956H100.006V17.1814H93.2529C93.2529 17.1814 90.0118 16.8124 90.0118 21.943C90.0118 27.0738 92.8407 26.8918 92.8407 26.8918H94.529V24.5109C94.529 24.5109 94.438 21.6709 97.3128 21.6709H102.107C102.107 21.6709 104.8 21.7146 104.8 19.0577V14.6646C104.8 14.6646 105.209 12.0059 99.9158 12.0059ZM97.2507 13.5422C97.3649 13.5421 97.478 13.5646 97.5835 13.6085C97.6891 13.6523 97.785 13.7166 97.8657 13.7977C97.9465 13.8788 98.0106 13.975 98.0542 14.081C98.0979 14.1869 98.1203 14.3005 98.1202 14.4152C98.1203 14.5298 98.0979 14.6434 98.0542 14.7494C98.0106 14.8553 97.9465 14.9516 97.8657 15.0327C97.785 15.1137 97.6891 15.178 97.5835 15.2219C97.478 15.2657 97.3649 15.2882 97.2507 15.2881C97.1365 15.2882 97.0233 15.2657 96.9178 15.2219C96.8122 15.178 96.7164 15.1137 96.6356 15.0327C96.5548 14.9516 96.4908 14.8553 96.4471 14.7494C96.4035 14.6434 96.381 14.5298 96.3811 14.4152C96.381 14.3005 96.4035 14.1869 96.4471 14.081C96.4908 13.975 96.5548 13.8788 96.6356 13.7977C96.7164 13.7166 96.8122 13.6523 96.9178 13.6085C97.0233 13.5646 97.1365 13.5421 97.2507 13.5422Z" fill="url(#paint0_linear)" fill-opacity="1"/>
<path d="M100.059 31.9314C105.124 31.9314 104.808 29.7264 104.808 29.7264L104.802 27.4419H99.9688V26.756H106.722C106.722 26.756 109.963 27.125 109.963 21.9943C109.963 16.8636 107.134 17.0456 107.134 17.0456H105.446V19.4264C105.446 19.4264 105.537 22.2664 102.662 22.2664H97.8683C97.8683 22.2664 95.1749 22.2227 95.1749 24.8797V29.2729C95.1749 29.2729 94.7659 31.9314 100.059 31.9314H100.059ZM102.724 30.3953C102.61 30.3954 102.497 30.3729 102.392 30.3291C102.286 30.2852 102.19 30.2209 102.109 30.1398C102.029 30.0588 101.964 29.9625 101.921 29.8565C101.877 29.7506 101.855 29.637 101.855 29.5224C101.855 29.4077 101.877 29.2941 101.921 29.1881C101.964 29.0822 102.029 28.9859 102.109 28.9048C102.19 28.8237 102.286 28.7594 102.391 28.7156C102.497 28.6717 102.61 28.6492 102.724 28.6493C102.839 28.6492 102.952 28.6717 103.057 28.7156C103.163 28.7594 103.259 28.8237 103.339 28.9048C103.42 28.9859 103.484 29.0821 103.528 29.1881C103.572 29.294 103.594 29.4076 103.594 29.5223C103.594 29.6369 103.572 29.7505 103.528 29.8565C103.484 29.9624 103.42 30.0587 103.339 30.1398C103.259 30.2208 103.163 30.2851 103.057 30.329C102.952 30.3728 102.839 30.3953 102.724 30.3952V30.3953Z" fill="url(#paint1_linear)"/>
<path d="M13.896 6.8C16.128 6.8 18.06 7.172 19.692 7.916C21.348 8.66 22.62 9.716 23.508 11.084C24.396 12.452 24.84 14.072 24.84 15.944C24.84 17.792 24.396 19.412 23.508 20.804C22.62 22.172 21.348 23.228 19.692 23.972C18.06 24.692 16.128 25.052 13.896 25.052H8.82V32H2.988V6.8H13.896ZM13.572 20.3C15.324 20.3 16.656 19.928 17.568 19.184C18.48 18.416 18.936 17.336 18.936 15.944C18.936 14.528 18.48 13.448 17.568 12.704C16.656 11.936 15.324 11.552 13.572 11.552H8.82V20.3H13.572ZM48.0426 12.632L39.2946 33.188C38.4066 35.42 37.3026 36.992 35.9826 37.904C34.6866 38.816 33.1146 39.272 31.2666 39.272C30.2586 39.272 29.2626 39.116 28.2786 38.804C27.2946 38.492 26.4906 38.06 25.8666 37.508L27.9186 33.512C28.3506 33.896 28.8426 34.196 29.3946 34.412C29.9706 34.628 30.5346 34.736 31.0866 34.736C31.8546 34.736 32.4786 34.544 32.9586 34.16C33.4386 33.8 33.8706 33.188 34.2546 32.324L34.3266 32.144L25.9386 12.632H31.7346L37.1706 25.772L42.6426 12.632H48.0426ZM63.3535 31.064C62.8015 31.472 62.1175 31.784 61.3015 32C60.5095 32.192 59.6695 32.288 58.7815 32.288C56.4775 32.288 54.6895 31.7 53.4175 30.524C52.1695 29.348 51.5455 27.62 51.5455 25.34V17.384H48.5575V13.064H51.5455V8.348H57.1615V13.064H61.9855V17.384H57.1615V25.268C57.1615 26.084 57.3655 26.72 57.7735 27.176C58.2055 27.608 58.8055 27.824 59.5735 27.824C60.4615 27.824 61.2175 27.584 61.8415 27.104L63.3535 31.064Z" fill="#000"/>
<path d="M78.2781 12.344C80.6781 12.344 82.6101 13.064 84.0741 14.504C85.5621 15.944 86.3061 18.08 86.3061 20.912V32H80.6901V21.776C80.6901 20.24 80.3541 19.1 79.6821 18.356C79.0101 17.588 78.0381 17.204 76.7661 17.204C75.3501 17.204 74.2221 17.648 73.3821 18.536C72.5421 19.4 72.1221 20.696 72.1221 22.424V32H66.5061V5.288H72.1221V14.648C72.8661 13.904 73.7661 13.34 74.8221 12.956C75.8781 12.548 77.0301 12.344 78.2781 12.344ZM126.759 12.344C129.159 12.344 131.091 13.064 132.555 14.504C134.043 15.944 134.787 18.08 134.787 20.912V32H129.171V21.776C129.171 20.24 128.835 19.1 128.163 18.356C127.491 17.588 126.519 17.204 125.247 17.204C123.831 17.204 122.703 17.648 121.863 18.536C121.023 19.4 120.603 20.696 120.603 22.424V32H114.987V12.632H120.351V14.9C121.095 14.084 122.019 13.46 123.123 13.028C124.227 12.572 125.439 12.344 126.759 12.344Z" fill="#000"/>
<defs>
<linearGradient id="paint0_linear" x1="91.9292" y1="13.7981" x2="101.855" y2="23.5865" gradientUnits="userSpaceOnUse">
<stop stop-color="#000"/>
<stop offset="1" stop-color="#000"/>
</linearGradient>
<linearGradient id="paint1_linear" x1="97.9977" y1="20.1083" x2="108.655" y2="30.1436" gradientUnits="userSpaceOnUse">
<stop stop-color="#000"/>
<stop offset="1" stop-color="#000"/>
</linearGradient>
</defs>
</svg>
